STARTFONT 2.1
FONT -Made with Bits'n'Picas by Kreative Software-TokiFic Initials-16-R-16--16-16-75-75-c-80-iso10646-1
SIZE 16 75 75
FONTBOUNDINGBOX 15 16 0 -1
STARTPROPERTIES 10
FAMILY_NAME "TokiFic Initials"
WEIGHT_NAME 16
FONT_VERSION "Version 1.0"
COPYRIGHT "Copyright (c) 2026 Fuur-Cho; TokiFic Initials, Licensed under the IPA Font License Agreement v1.0."
FOUNDRY "Made with Bits'n'Picas by Kreative Software"
FONT_ASCENT 14
FONT_DESCENT 2
POINT_SIZE 16
X_HEIGHT 8
CAP_HEIGHT 10
ENDPROPERTIES
CHARS 28
STARTCHAR U+0011
ENCODING 17
SWIDTH 533 0
DWIDTH 8 0
BBX 0 0 0 0
BITMAP
ENDCHAR
STARTCHAR U+0020
ENCODING 32
SWIDTH 1066 0
DWIDTH 16 0
BBX 15 15 0 -1
BITMAP
FFFE
FFFE
FFFE
FFFE
FFFE
FFFE
FFFE
FFFE
FFFE
FFFE
FFFE
FFFE
FFFE
FFFE
FFFE
ENDCHAR
STARTCHAR U+0041
ENCODING 65
SWIDTH 1066 0
DWIDTH 16 0
BBX 15 15 0 0
BITMAP
FFFE
FEFE
FEFE
FC7E
FC7E
FD3E
FB3E
FB9E
F79E
F00E
EFCE
EFE6
DFE6
8FC2
FFFE
ENDCHAR
STARTCHAR U+0042
ENCODING 66
SWIDTH 1066 0
DWIDTH 16 0
BBX 15 15 0 0
BITMAP
FFFE
C07E
E73E
E79E
E79E
E73E
E77E
E03E
E79E
E7CE
E7CE
E7CE
E79E
C03E
FFFE
ENDCHAR
STARTCHAR U+0043
ENCODING 67
SWIDTH 1066 0
DWIDTH 16 0
BBX 15 15 0 0
BITMAP
FFFE
FE1E
F9C6
E3F6
E7F6
C7FE
CFFE
CFFE
CFFE
CFFE
E7F6
E7F6
F3E6
FC1E
FFFE
ENDCHAR
STARTCHAR U+0044
ENCODING 68
SWIDTH 1066 0
DWIDTH 16 0
BBX 15 15 0 0
BITMAP
FFFE
C07E
E79E
E7E6
E7E6
E7F2
E7F2
E7F2
E7F2
E7F2
E7E6
E7E6
E79E
C07E
FFFE
ENDCHAR
STARTCHAR U+0045
ENCODING 69
SWIDTH 1066 0
DWIDTH 16 0
BBX 15 15 0 0
BITMAP
FFFE
E01E
F3DE
F3DE
F3FE
F3FE
F3BE
F03E
F3BE
F3FE
F3FE
F3EE
F3EE
E00E
FFFE
ENDCHAR
STARTCHAR U+0046
ENCODING 70
SWIDTH 1066 0
DWIDTH 16 0
BBX 15 15 0 0
BITMAP
FFFE
E00E
F3EE
F3EE
F3FE
F3FE
F3BE
F03E
F3BE
F3FE
F3FE
F3FE
F3FE
E1FE
FFFE
ENDCHAR
STARTCHAR U+0047
ENCODING 71
SWIDTH 1066 0
DWIDTH 16 0
BBX 15 15 0 0
BITMAP
FFFE
FE1E
F9C6
E3F6
E7F6
CFFE
CFFE
CFFE
CF82
CFE6
E7E6
E7E6
F3C6
FC1E
FFFE
ENDCHAR
STARTCHAR U+0048
ENCODING 72
SWIDTH 1066 0
DWIDTH 16 0
BBX 15 15 0 0
BITMAP
FFFE
87C2
CFE6
CFE6
CFE6
CFE6
CFE6
C006
CFE6
CFE6
CFE6
CFE6
CFE6
8782
FFFE
ENDCHAR
STARTCHAR U+0049
ENCODING 73
SWIDTH 1066 0
DWIDTH 16 0
BBX 15 15 0 0
BITMAP
FFFE
F03E
FCFE
FCFE
FCFE
FCFE
FCFE
FCFE
FCFE
FCFE
FCFE
FCFE
FCFE
F03E
FFFE
ENDCHAR
STARTCHAR U+004A
ENCODING 74
SWIDTH 1066 0
DWIDTH 16 0
BBX 15 15 0 0
BITMAP
FFFE
F81E
FE7E
FE7E
FE7E
FE7E
FE7E
FE7E
FE7E
FE7E
FE7E
E67E
E6FE
F1FE
FFFE
ENDCHAR
STARTCHAR U+004B
ENCODING 75
SWIDTH 1066 0
DWIDTH 16 0
BBX 15 15 0 0
BITMAP
FFFE
C386
E7DE
E7BE
E77E
E6FE
E1FE
E1FE
E4FE
E67E
E73E
E79E
E7CE
C382
FFFE
ENDCHAR
STARTCHAR U+004C
ENCODING 76
SWIDTH 1066 0
DWIDTH 16 0
BBX 15 15 0 0
BITMAP
FFFE
E1FE
F3FE
F3FE
F3FE
F3FE
F3FE
F3FE
F3FE
F3FE
F3FE
F3EE
F3EE
E00E
FFFE
ENDCHAR
STARTCHAR U+004D
ENCODING 77
SWIDTH 1066 0
DWIDTH 16 0
BBX 15 15 0 0
BITMAP
FFFE
87E2
C7E6
C7C6
D3C6
D3A6
DBA6
D9A6
D9A6
B972
BC72
BC72
BEF2
1EE0
FFFE
ENDCHAR
STARTCHAR U+004E
ENCODING 78
SWIDTH 1066 0
DWIDTH 16 0
BBX 15 15 0 0
BITMAP
FFFE
C7E2
E3F6
E3F6
E9F6
ECF6
ECF6
EE76
EF36
EF96
EF96
EFC6
EFE6
C7F6
FFFE
ENDCHAR
STARTCHAR U+004F
ENCODING 79
SWIDTH 1066 0
DWIDTH 16 0
BBX 15 15 0 0
BITMAP
FFFE
F83E
F78E
CFE6
CFE6
9FF2
9FF2
9FF2
9FF2
9FF2
CFE6
CFE6
E3DE
F83E
FFFE
ENDCHAR
STARTCHAR U+0050
ENCODING 80
SWIDTH 1066 0
DWIDTH 16 0
BBX 15 15 0 0
BITMAP
FFFE
C07E
E79E
E7CE
E7CE
E7CE
E7CE
E79E
E07E
E7FE
E7FE
E7FE
E7FE
C3FE
FFFE
ENDCHAR
STARTCHAR U+0051
ENCODING 81
SWIDTH 1066 0
DWIDTH 16 0
BBX 15 15 0 0
BITMAP
FFFE
F87E
E71E
CF9E
CFCE
9FCE
9FCE
9FCE
8FCE
CF9E
E7BE
F87E
FF0E
FF82
FFFE
ENDCHAR
STARTCHAR U+0052
ENCODING 82
SWIDTH 1066 0
DWIDTH 16 0
BBX 15 15 0 0
BITMAP
FFFE
C07E
E71E
E79E
E79E
E79E
E73E
E07E
E73E
E79E
E79E
E79E
E78E
C3E2
FFFE
ENDCHAR
STARTCHAR U+0053
ENCODING 83
SWIDTH 1066 0
DWIDTH 16 0
BBX 15 15 0 0
BITMAP
FFFE
FC1E
F986
F3EE
F3EE
F1FE
F87E
FC1E
FF8E
EFCE
EFCE
E7CE
C39E
F03E
FFFE
ENDCHAR
STARTCHAR U+0054
ENCODING 84
SWIDTH 1066 0
DWIDTH 16 0
BBX 15 15 0 0
BITMAP
FFFE
8006
BCF6
BCF6
FCFE
FCFE
FCFE
FCFE
FCFE
FCFE
FCFE
FCFE
FCFE
F87E
FFFE
ENDCHAR
STARTCHAR U+0055
ENCODING 85
SWIDTH 1066 0
DWIDTH 16 0
BBX 15 15 0 0
BITMAP
FFFE
87E2
CFF6
CFF6
CFF6
CFF6
CFF6
CFF6
CFF6
CFF6
CFF6
E7EE
E3CE
F83E
FFFE
ENDCHAR
STARTCHAR U+0056
ENCODING 86
SWIDTH 1066 0
DWIDTH 16 0
BBX 15 15 0 0
BITMAP
FFFE
87E2
CFF6
E7EE
E7EE
F3DE
F3DE
F1DE
F9BE
F9BE
FC7E
FC7E
FEFE
FEFE
FFFE
ENDCHAR
STARTCHAR U+0057
ENCODING 87
SWIDTH 1066 0
DWIDTH 16 0
BBX 15 15 0 0
BITMAP
FFFE
0810
9CBA
9CBA
CE76
CE76
CE76
CC6E
E52E
E52E
E31E
E39E
F7BE
F7BE
FFFE
ENDCHAR
STARTCHAR U+0058
ENCODING 88
SWIDTH 1066 0
DWIDTH 16 0
BBX 15 15 0 0
BITMAP
FFFE
8386
E7DE
F3BE
F3BE
F97E
F87E
FCFE
FC7E
FB3E
FB1E
F79E
EFCE
8702
FFFE
ENDCHAR
STARTCHAR U+0059
ENCODING 89
SWIDTH 1066 0
DWIDTH 16 0
BBX 15 15 0 0
BITMAP
FFFE
83C2
E7EE
F3DE
F19E
F8BE
FC7E
FC7E
FE7E
FE7E
FE7E
FE7E
FE7E
FC3E
FFFE
ENDCHAR
STARTCHAR U+005A
ENCODING 90
SWIDTH 1066 0
DWIDTH 16 0
BBX 15 15 0 0
BITMAP
FFFE
C00E
DF9E
DF3E
FF3E
FE7E
FE7E
FCFE
FCFE
F9FE
F3FE
F3F6
E7F6
C006
FFFE
ENDCHAR
ENDFONT
